<?xml version="1.0" encoding="UTF-8"?>
<svg width="498px" height="193px" viewBox="0 0 498 193" version="1.1" xmlns="http://www.w3.org/2000/svg" xmlns:xlink="http://www.w3.org/1999/xlink">
    <!-- Generator: Sketch 55.2 (78181) - https://sketchapp.com -->
    <title>10 copy 2</title>
    <desc>Created with Sketch.</desc>
    <g id="logo-final" stroke="none" stroke-width="1" fill="none" fill-rule="evenodd">
        <g id="10-copy-2" transform="translate(-34.000000, -1.000000)" fill="#FFFFFF">
            <g id="Group-7-Copy-2" transform="translate(105.500000, 97.383323) rotate(-35.000000) translate(-105.500000, -97.383323) translate(17.000000, 41.383323)">
                <rect id="Rectangle-Copy-4" x="58.0550946" y="0.443212139" width="118" height="54"></rect>
                <polygon id="Rectangle-Copy-5" points="0.252490617 57.8257625 118.252491 57.8257625 118.252491 111.825763 0.252490617 111.825763"></polygon>
            </g>
            <path d="M194.077221,104.859375 L206.381909,104.859375 C207.163159,111.158203 213.413159,115.210938 222.348706,115.210938 C230.649487,115.210938 236.655346,110.962891 236.655346,105.054688 C236.655346,99.9765625 232.797924,96.9980469 223.764721,94.8984375 L214.633862,92.7988281 C201.840893,89.9179688 195.835034,83.5703125 195.835034,73.0722656 C195.835034,60.2792969 206.284252,51.7832031 222.055737,51.7832031 C236.850659,51.7832031 247.544018,60.2792969 248.129956,72.3886719 L236.069409,72.3886719 C235.190502,66.1875 229.721752,62.28125 222.006909,62.28125 C213.90144,62.28125 208.530346,66.1875 208.530346,72.1933594 C208.530346,76.9296875 212.094799,79.7128906 220.835034,81.7148438 L228.940502,83.5703125 C243.247143,86.7929688 249.253002,92.75 249.253002,103.492188 C249.253002,117.212891 238.657299,125.757812 221.567456,125.757812 C205.405346,125.757812 194.711987,117.652344 194.077221,104.859375 Z M272.917065,115.357422 C280.241284,115.357422 285.710034,110.621094 285.710034,104.419922 L285.710034,100.171875 L273.649487,100.953125 C266.862377,101.392578 263.688549,103.833984 263.688549,108.179688 C263.688549,112.671875 267.545971,115.357422 272.917065,115.357422 Z M269.352612,124.878906 C259.049877,124.878906 251.676831,118.628906 251.676831,108.863281 C251.676831,99.1953125 258.952221,93.6289062 271.940502,92.8476562 L285.710034,92.0175781 L285.710034,87.5253906 C285.710034,82.3007812 282.194409,79.3710938 275.65144,79.3710938 C270.085034,79.3710938 266.27644,81.3242188 265.153393,84.9375 L253.727612,84.9375 C254.704174,75.5136719 263.542065,69.5078125 276.237377,69.5078125 C289.958081,69.5078125 297.672924,76.1972656 297.672924,87.5253906 L297.672924,124 L286.003002,124 L286.003002,116.675781 L285.172924,116.675781 C282.194409,121.851562 276.335034,124.878906 269.352612,124.878906 Z M309.081127,57.4960938 L321.141674,57.4960938 L321.141674,70.9238281 L332.567456,70.9238281 L332.567456,80.5917969 L321.141674,80.5917969 L321.141674,106.8125 C321.141674,112.085938 323.387768,114.429688 328.465893,114.429688 C330.174877,114.429688 331.102612,114.332031 332.567456,114.185547 L332.567456,123.658203 C330.809643,124 328.563549,124.244141 326.219799,124.244141 C313.96394,124.244141 309.081127,120.09375 309.081127,109.742188 L309.081127,80.5917969 L300.633862,80.5917969 L300.633862,70.9238281 L309.081127,70.9238281 L309.081127,57.4960938 Z M335.723706,104.859375 L348.028393,104.859375 C348.809643,111.158203 355.059643,115.210938 363.99519,115.210938 C372.295971,115.210938 378.301831,110.962891 378.301831,105.054688 C378.301831,99.9765625 374.444409,96.9980469 365.411206,94.8984375 L356.280346,92.7988281 C343.487377,89.9179688 337.481518,83.5703125 337.481518,73.0722656 C337.481518,60.2792969 347.930737,51.7832031 363.702221,51.7832031 C378.497143,51.7832031 389.190502,60.2792969 389.77644,72.3886719 L377.715893,72.3886719 C376.836987,66.1875 371.368237,62.28125 363.653393,62.28125 C355.547924,62.28125 350.176831,66.1875 350.176831,72.1933594 C350.176831,76.9296875 353.741284,79.7128906 362.481518,81.7148438 L370.586987,83.5703125 C384.893627,86.7929688 390.899487,92.75 390.899487,103.492188 C390.899487,117.212891 380.303784,125.757812 363.21394,125.757812 C347.051831,125.757812 336.358471,117.652344 335.723706,104.859375 Z M443.274487,70.5820312 L443.274487,124 L431.604565,124 L431.604565,115.503906 L430.774487,115.503906 C428.186596,121.607422 422.961987,125.074219 414.80769,125.074219 C403.137768,125.074219 396.301831,117.798828 396.301831,105.298828 L396.301831,70.5820312 L408.411206,70.5820312 L408.411206,102.271484 C408.411206,110.425781 411.780346,114.429688 419.006909,114.429688 C426.868237,114.429688 431.165112,109.595703 431.165112,101.685547 L431.165112,70.5820312 L443.274487,70.5820312 Z M451.118237,124 L451.118237,70.5820312 L462.788159,70.5820312 L462.788159,78.8828125 L463.618237,78.8828125 C465.083081,73.609375 470.844799,69.703125 477.729565,69.703125 C479.487377,69.703125 481.635815,69.8984375 482.758862,70.2402344 L482.758862,81.4707031 C481.831127,81.1289062 478.608471,80.7871094 476.55769,80.7871094 C468.696362,80.7871094 463.227612,85.6699219 463.227612,93.140625 L463.227612,124 L451.118237,124 Z M506.764721,79.1269531 C499.538159,79.1269531 494.460034,84.3027344 493.922924,92.1152344 L519.069409,92.1152344 C518.825268,84.2050781 514.040112,79.1269531 506.764721,79.1269531 Z M519.167065,109.302734 L530.641674,109.302734 C528.444409,119.019531 519.508862,125.074219 506.911206,125.074219 C491.188549,125.074219 481.715893,114.673828 481.715893,97.4863281 C481.715893,80.2988281 491.335034,69.5078125 506.813549,69.5078125 C522.047924,69.5078125 531.178784,79.6152344 531.178784,96.4609375 L531.178784,100.367188 L493.874096,100.367188 L493.874096,101.001953 C494.167065,109.888672 499.294018,115.455078 507.253002,115.455078 C513.258862,115.455078 517.409252,113.257812 519.167065,109.302734 Z" id="SatSure" fill-rule="nonzero"></path>
        </g>
    </g>
</svg>