<?xml version="1.0" encoding="UTF-8"?>
<svg width="85px" height="86px" viewBox="0 0 85 86" version="1.1" xmlns="http://www.w3.org/2000/svg" xmlns:xlink="http://www.w3.org/1999/xlink">
    <!-- Generator: Sketch 55.2 (78181) - https://sketchapp.com -->
    <title>noun_sensor_2612716</title>
    <desc>Created with Sketch.</desc>
    <g id="Page-1" stroke="none" stroke-width="1" fill="none" fill-rule="evenodd">
        <g id="Landing4" transform="translate(-284.000000, -1034.000000)" fill="#000000" fill-rule="nonzero">
            <g id="noun_sensor_2612716" transform="translate(285.000000, 1035.000000)">
                <g id="Group">
                    <path d="M52.2936913,41.4475786 C52.2936913,46.9388619 48.1651198,51.4991794 42.8492468,52.160277 L42.8492468,85 L40.1508341,85 L40.1508341,52.160277 C34.8349611,51.4991794 30.7063897,46.9388484 30.7063897,41.4475786 C30.7063897,35.497619 35.55,30.6539278 41.5000405,30.6539278 C47.45,30.6539278 52.2936913,35.497619 52.2936913,41.4475786 Z" id="Path"></path>
                    <path d="M62.642077,41.4475786 C62.642077,47.1142587 60.4428706,52.4166262 56.4626849,56.4103175 L54.5468389,54.507896 C58.0278183,51.0269976 59.9436643,46.3857278 59.9436643,41.4475921 C59.9436643,31.2746032 51.6730294,22.9904627 41.5000405,22.9904627 C31.3269706,22.9904627 23.0563357,31.2746032 23.0563357,41.4475921 C23.0563357,46.3857278 24.9722627,51.0270111 28.4397365,54.507896 L26.5373016,56.4103175 C22.5436238,52.4301452 20.3579095,47.1142722 20.3579095,41.4475786 C20.3579095,29.7769976 29.8428706,20.2920365 41.500027,20.2920365 C53.1571159,20.2920365 62.642077,29.7769976 62.642077,41.4475786 Z" id="Path" stroke="#FFFFFF" stroke-width="0.7"></path>
                    <path d="M63.6404762,63.5880952 L61.7246302,61.6721683 C70.0221952,53.3746032 72.3698952,41.4475786 67.85,30.5190476 C63.3301857,19.6174333 53.2380683,12.8443905 41.5000405,12.8443905 C29.7619317,12.8443905 19.6698952,19.6174333 15.15,30.5190476 C10.6301857,41.4340865 12.9777913,53.3746032 21.2753698,61.6721817 L19.3595238,63.5880952 C10.2793921,54.5078825 7.71587302,41.434073 12.6540087,29.4801183 C17.605569,17.5531881 28.6555825,10.1459643 41.5000405,10.1459643 C54.344431,10.1459643 65.394431,17.5531746 70.3325802,29.4801183 C75.2841405,41.434073 72.7206079,54.5078825 63.6404762,63.5880952 Z" id="Path" stroke="#FFFFFF" stroke-width="0.7"></path>
                    <path d="M82.9341135,41.4475786 C82.9341135,52.5245897 78.6301452,62.9404222 70.8047619,70.7658056 L68.9024214,68.8499595 C76.2150929,61.5372881 80.2357008,51.8094833 80.2357008,41.4475786 C80.2357008,20.0761905 62.857923,2.6984127 41.5000405,2.6984127 C20.142077,2.6984127 2.76429921,20.0761905 2.76429921,41.4475786 C2.76429921,51.8094698 6.78490714,61.5372746 14.0976595,68.8499595 L12.1817325,70.7658056 C4.36985476,62.9404222 0.0658865079,52.5245897 0.0658865079,41.4475786 C0.0658865079,18.592023 18.6444849,0 41.5000405,0 C64.3420905,0 82.9341135,18.592023 82.9341135,41.4475786 Z" id="Path" stroke="#FFFFFF" stroke-width="0.7"></path>
                </g>
            </g>
        </g>
    </g>
</svg>